<svg width="10000" height="9711" viewBox="0 0 10000 9711" fill="none" xmlns="http://www.w3.org/2000/svg">
<g clip-path="url(#clip0_2003_4)">
<path d="M8641.16 26.3263C8763.33 11.2131 8872.04 101.163 8883.88 222.913L8917.29 566.125C8929.17 688.255 8839.42 795.847 8718.72 811.115C7654.64 945.716 6912.81 1301.04 6419.69 1674.31C6354.06 1724.02 6346.2 1795.22 6374.97 1854.19C6404.17 1914.05 6471.26 1960.65 6555.98 1955.1C7274.24 1908.12 8151.5 2023.61 9147 2445.09C9260.32 2493.09 9309.56 2625.42 9258.94 2736.78L9116.27 3050.7C9065.5 3162.41 8933.91 3210.62 8821.75 3163.49C7745.2 2711.16 6868.66 2676.45 6240.65 2785.19C6169.49 2797.51 6127.29 2848.68 6116.68 2909.03C6106 2969.9 6127.75 3039.44 6186.03 3085.38C6785.65 3557.67 7400.16 4300.31 7850.85 5412.84C7897.07 5526.93 7838.3 5655.36 7723.75 5698.32L7400.78 5819.47C7285.93 5862.51 7158.93 5803.67 7112.91 5691.1C6684.04 4640.67 6109.88 4002.44 5599.81 3630.26C5496.74 3555.09 5355.3 3628.99 5350.43 3761.47C5302.45 5064.03 5142.33 6859.58 4607.53 8668.06C4574.33 8780.35 4657.85 8893.8 4774.26 8893.8H9707.17C9829.64 8893.8 9928.96 8993.12 9928.96 9115.58V9460.48C9928.93 9582.93 9829.62 9682.12 9707.17 9682.12H246.403C123.956 9682.12 24.6516 9582.93 24.624 9460.48V9115.58C24.624 8993.12 123.94 8893.8 246.403 8893.8H3586.24C3660.43 8893.8 3726.27 8846.35 3749.01 8776.04C4332.06 6972.33 4507.33 5137.99 4559.98 3795.71C4565.32 3659.36 4420.68 3579.58 4315.13 3658.86C3814.9 4034.8 3258.74 4667.09 2840.66 5691.1C2794.65 5803.68 2667.65 5862.51 2552.79 5819.47L2229.81 5698.32C2115.27 5655.36 2056.5 5526.93 2102.72 5412.84C2553.42 4300.31 3167.93 3557.67 3767.55 3085.38C3825.82 3039.44 3847.58 2969.9 3836.9 2909.03C3826.29 2848.68 3784.08 2797.51 3712.91 2785.19C3084.91 2676.45 2208.37 2711.16 1131.82 3163.49C1019.66 3210.62 888.07 3162.41 837.293 3050.7L694.631 2736.78C644.012 2625.42 693.253 2493.09 806.582 2445.09C1802.07 2023.61 2679.33 1908.12 3397.59 1955.1C3482.32 1960.65 3549.4 1914.05 3578.61 1854.19C3607.37 1795.22 3599.52 1724.02 3533.88 1674.31C3040.77 1301.04 2298.94 945.716 1234.85 811.115C1114.16 795.847 1024.41 688.255 1036.29 566.125L1069.69 222.913C1081.53 101.162 1190.24 11.2131 1312.41 26.3263C3186.69 258.193 4281.17 1118.5 4790.81 1834.94C4832.74 1893.89 4903.93 1924.39 4976.78 1924.39C5049.65 1924.39 5120.84 1893.89 5162.75 1834.94C5672.4 1118.5 6766.88 258.193 8641.16 26.3263Z" fill="white" stroke="white" stroke-width="49.2754"/>
</g>
<defs>
<clipPath id="clip0_2003_4">
<rect width="10000" height="9710.14" fill="white"/>
</clipPath>
</defs>
</svg>
